<svg id="visual" viewBox="0 0 900 600" width="900" height="600" xmlns="http://www.w3.org/2000/svg" xmlns:xlink="http://www.w3.org/1999/xlink" version="1.1"><g transform="translate(435.32956509019647 310.86354990944363)"><path d="M123.4 -133C170.5 -107.5 226.6 -78.7 229.1 -43.4C231.7 -8.2 180.8 33.4 143.9 69.6C106.9 105.8 83.9 136.5 49.5 159.1C15 181.7 -30.8 196.1 -72 186.1C-113.1 176.2 -149.7 141.8 -171 100.7C-192.4 59.6 -198.6 11.8 -199.7 -44.5C-200.8 -100.7 -196.8 -165.2 -162.7 -193.1C-128.6 -220.9 -64.3 -211.9 -13.1 -196.4C38.1 -180.8 76.3 -158.6 123.4 -133" fill="#D29F46"></path></g></svg>