<svg id="visual" viewBox="0 0 900 600" width="900" height="600" xmlns="http://www.w3.org/2000/svg" xmlns:xlink="http://www.w3.org/1999/xlink" version="1.1"><g transform="translate(450 300)"><path d="M143.3 -248.2C186.6 -223.2 223.2 -186.6 248.2 -143.3C273.2 -100 286.6 -50 286.6 0C286.6 50 273.2 100 248.2 143.3C223.2 186.6 186.6 223.2 143.3 248.2C100 273.2 50 286.6 0 286.6C-50 286.6 -100 273.2 -143.3 248.2C-186.6 223.2 -223.2 186.6 -248.2 143.3C-273.2 100 -286.6 50 -286.6 0C-286.6 -50 -273.2 -100 -248.2 -143.3C-223.2 -186.6 -186.6 -223.2 -143.3 -248.2C-100 -273.2 -50 -286.6 0 -286.6C50 -286.6 100 -273.2 143.3 -248.2" fill="none" stroke="#faa200" stroke-width="6"></path></g></svg>