<svg id="visual" viewBox="0 0 900 600" width="900" height="600" xmlns="http://www.w3.org/2000/svg" xmlns:xlink="http://www.w3.org/1999/xlink" version="1.1"><g transform="translate(420.32497451071237 309.9358341905765)"><path d="M128.5 -151.7C177.8 -111.8 236.6 -82 245.9 -41.5C255.3 -1.1 215.1 50 179.5 96.1C143.9 142.2 112.8 183.4 70.3 203.2C27.8 223 -26.1 221.5 -68.5 200.6C-110.8 179.8 -141.6 139.6 -162.7 96.9C-183.8 54.2 -195.3 8.9 -182.7 -26.9C-170 -62.6 -133.2 -88.8 -98.8 -131.2C-64.3 -173.6 -32.1 -232.3 3.7 -236.8C39.6 -241.2 79.3 -191.5 128.5 -151.7" fill="#D29F46"></path></g></svg>