<svg id="visual" viewBox="0 0 900 600" width="900" height="600" xmlns="http://www.w3.org/2000/svg" xmlns:xlink="http://www.w3.org/1999/xlink" version="1.1"><g transform="translate(450 300)"><path d="M71.7 -124.1C93.3 -111.6 111.6 -93.3 124.1 -71.7C136.6 -50 143.3 -25 143.3 0C143.3 25 136.6 50 124.1 71.7C111.6 93.3 93.3 111.6 71.7 124.1C50 136.6 25 143.3 0 143.3C-25 143.3 -50 136.6 -71.7 124.1C-93.3 111.6 -111.6 93.3 -124.1 71.7C-136.6 50 -143.3 25 -143.3 0C-143.3 -25 -136.6 -50 -124.1 -71.7C-111.6 -93.3 -93.3 -111.6 -71.7 -124.1C-50 -136.6 -25 -143.3 0 -143.3C25 -143.3 50 -136.6 71.7 -124.1" fill="#faa200"></path></g></svg>