<svg id="visual" viewBox="0 0 900 600" width="900" height="600" xmlns="http://www.w3.org/2000/svg" xmlns:xlink="http://www.w3.org/1999/xlink" version="1.1"><g transform="translate(450.2922889388243 297.74311899838744)"><path d="M98.4 -132.5C132.6 -88.6 168.7 -62.4 180.6 -27.1C192.6 8.3 180.3 52.6 160.6 98.4C141 144.2 113.9 191.5 68.8 222.3C23.7 253.1 -39.4 267.5 -76.6 240.8C-113.7 214.1 -124.8 146.3 -142.2 93.2C-159.6 40.2 -183.2 1.9 -185.7 -41.2C-188.2 -84.3 -169.6 -132.2 -135.2 -175.9C-100.7 -219.7 -50.4 -259.3 -9.1 -248.5C32.1 -237.6 64.3 -176.3 98.4 -132.5" fill="#D29F46"></path></g></svg>