<svg id="visual" viewBox="0 0 900 600" width="900" height="600" xmlns="http://www.w3.org/2000/svg" xmlns:xlink="http://www.w3.org/1999/xlink" version="1.1"><g transform="translate(468.19452627348204 283.6117170414385)"><path d="M169.8 -193.3C211 -167.7 229.1 -105.7 218.6 -54.9C208.1 -4.1 169 35.5 143 84.4C116.9 133.3 104 191.6 67.4 220C30.9 248.4 -29.2 246.8 -82.3 227.1C-135.4 207.3 -181.6 169.4 -214.8 120.1C-248 70.7 -268.3 9.9 -252.4 -38.3C-236.5 -86.5 -184.5 -122.2 -136.4 -146.5C-88.3 -170.9 -44.1 -183.9 10.1 -195.9C64.3 -207.9 128.6 -218.9 169.8 -193.3" fill="#D29F46"></path></g></svg>