<?xml version="1.0" standalone="no"?>
<!DOCTYPE svg PUBLIC "-//W3C//DTD SVG 20010904//EN"
 "http://www.w3.org/TR/2001/REC-SVG-20010904/DTD/svg10.dtd">
<svg version="1.0" xmlns="http://www.w3.org/2000/svg"
 width="420.000000pt" height="390.000000pt" viewBox="0 0 420.000000 390.000000"
 preserveAspectRatio="xMidYMid meet">

<g transform="translate(0.000000,390.000000) scale(0.100000,-0.100000)"
fill="#000000" stroke="none">
<path d="M2630 3840 c-769 -65 -1303 -237 -1781 -575 -263 -185 -502 -424
-644 -644 -63 -97 -129 -238 -157 -336 -33 -116 -33 -301 0 -400 33 -98 96
-216 167 -310 77 -103 278 -305 425 -427 140 -116 930 -729 1055 -819 303
-218 501 -308 695 -317 229 -10 415 83 665 333 318 318 619 805 808 1310 84
226 187 585 236 825 49 242 56 312 55 525 -1 172 -4 211 -22 280 -85 314 -288
466 -722 541 -112 19 -610 28 -780 14z"/>
</g>
</svg>
